<svg xmlns="http://www.w3.org/2000/svg" width="23.061" height="16.144" viewBox="0 0 23.061 16.144">
  <g id="back_arrow" data-name="back arrow" transform="translate(-6 -8.999)">
    <path id="Path_122" data-name="Path 122" d="M27.907,15.918H9.621l4.185-5.027A1.154,1.154,0,0,0,12.03,9.415L6.265,16.333a1.372,1.372,0,0,0-.1.173.146.146,0,0,1-.081.15A1.153,1.153,0,0,0,6,17.071H6a1.153,1.153,0,0,0,.081.415.146.146,0,0,0,.081.15,1.372,1.372,0,0,0,.1.173l5.765,6.918a1.154,1.154,0,1,0,1.776-1.476L9.621,18.224H27.907a1.153,1.153,0,1,0,0-2.306Z" transform="translate(0 0)" fill="#fff"/>
    <path id="Path_123" data-name="Path 123" d="M6.081,16.415a.146.146,0,0,0,.081.15,1.372,1.372,0,0,0,.1.173l5.765,6.918a1.154,1.154,0,1,0,1.776-1.476L9.621,17.153H27.907A1.153,1.153,0,0,0,29.061,16H6A1.153,1.153,0,0,0,6.081,16.415Z" transform="translate(0 1.071)" fill="#fff"/>
  </g>
</svg>
