<?xml version="1.0" encoding="utf-8"?>
<!-- Generator: Adobe Illustrator 24.3.0, SVG Export Plug-In . SVG Version: 6.00 Build 0)  -->
<svg version="1.1" id="Layer_1" xmlns="http://www.w3.org/2000/svg" xmlns:xlink="http://www.w3.org/1999/xlink" x="0px" y="0px"
	 viewBox="0 0 330.3 241.6" style="enable-background:new 0 0 330.3 241.6;" xml:space="preserve">
<style type="text/css">
	.st0{fill:none;stroke:#9170C1;stroke-width:0.914;stroke-linecap:round;stroke-linejoin:round;}
	.st1{fill:none;stroke:#FFAC5A;stroke-width:2;stroke-linecap:round;stroke-linejoin:round;stroke-dasharray:5.487,5.487;}
	.st2{fill:url(#Path_120_1_);}
	.st3{fill:none;stroke:#B283FB;stroke-width:2.743;stroke-linecap:round;stroke-linejoin:round;}
</style>
<g id="graph" transform="translate(-518.676 -200.422)">
	<g id="Group_32" transform="translate(490.559 219.488)">
		<g id="Group_31">
			<g id="Group_30" transform="translate(0 11.836)">
				<line id="Line_5" class="st0" x1="28.6" y1="192.1" x2="356.6" y2="192.1"/>
				<line id="Line_1" class="st0" x1="28.6" y1="137.1" x2="356.6" y2="137.1"/>
				<line id="Line_2" class="st0" x1="28.6" y1="81.1" x2="356.6" y2="81.1"/>
				<line id="Line_3" class="st0" x1="28.6" y1="26.1" x2="356.6" y2="26.1"/>
				<line id="Line_4" class="st0" x1="28.6" y1="-29.9" x2="356.6" y2="-29.9"/>
			</g>
		</g>
		<path id="Path_119" class="st1" d="M30.2,92.4c0,0,19,43.4,60.7,43.4s44.7-83.5,72-83.5s68.2,36.2,108.2,36.2S356-17.8,356-17.8"
			/>
		
			<linearGradient id="Path_120_1_" gradientUnits="userSpaceOnUse" x1="-110.9559" y1="407.0931" x2="-110.9559" y2="408.0931" gradientTransform="matrix(327.848 0 0 -218.8201 36570.7578 89302.7188)">
			<stop  offset="0" style="stop-color:#00FFDD;stop-opacity:0"/>
			<stop  offset="5.000000e-03" style="stop-color:#8448E2;stop-opacity:0"/>
			<stop  offset="0.14" style="stop-color:#8448E2;stop-opacity:0.18"/>
			<stop  offset="0.269" style="stop-color:#8448E2;stop-opacity:0.302"/>
			<stop  offset="0.396" style="stop-color:#8448E2;stop-opacity:0.322"/>
			<stop  offset="0.523" style="stop-color:#8448E2;stop-opacity:0.471"/>
			<stop  offset="0.648" style="stop-color:#8448E2;stop-opacity:0.549"/>
			<stop  offset="0.772" style="stop-color:#8448E2;stop-opacity:0.659"/>
			<stop  offset="0.894" style="stop-color:#8448E2;stop-opacity:0.82"/>
			<stop  offset="1" style="stop-color:#8448E2"/>
		</linearGradient>
		<path id="Path_120" class="st2" d="M358,69.9c-65.5,0-70.9-66.2-105.9-66.2s-60.5,159.6-89.3,159.6s-43.9-91-73.6-91
			s-59,121.2-59,121.2v29H358V69.9z"/>
		<path id="Path_121" class="st3" d="M30.2,202.4c0,0,29.3-126.8,59-126.8s44.9,87.9,73.6,87.9S217,3.8,252.1,3.8S291.5,73,357,73"
			/>
	</g>
</g>
</svg>
