<svg xmlns="http://www.w3.org/2000/svg" width="19.706" height="22.569" viewBox="0 0 19.706 22.569">
  <g id="location" transform="translate(-1.013 -1036.36)">
    <path id="path4926" d="M10.857,0A6.356,6.356,0,0,0,4.512,6.343a.705.705,0,0,0,.033.223A11.892,11.892,0,0,0,6.7,12.545c1.172,1.864,2.53,3.614,3.4,5.4a.705.705,0,0,0,1.261.014,63.7,63.7,0,0,1,3.575-5.4,11.317,11.317,0,0,0,2.283-6.2.705.705,0,0,0-.047-.262A6.344,6.344,0,0,0,10.857,0Zm0,1.41a4.924,4.924,0,0,1,4.935,4.935.705.705,0,0,0,.014.151,10.193,10.193,0,0,1-2.041,5.288c-.97,1.468-2.066,2.983-3.013,4.558-.9-1.568-1.933-3.081-2.853-4.544A10.357,10.357,0,0,1,5.944,6.354a.705.705,0,0,0-.011-.124A4.918,4.918,0,0,1,10.857,1.408Zm0,2.823a2.115,2.115,0,1,0,2.115,2.115A2.126,2.126,0,0,0,10.857,4.231Zm0,1.41a.705.705,0,1,1-.705.705A.695.695,0,0,1,10.857,5.641Zm5.767,7.37a.705.705,0,0,0-.253,1.363,5.375,5.375,0,0,1,2.7,2,1.676,1.676,0,0,1-.129,2.01c-1.021,1.461-4.28,2.755-8,2.77s-7.025-1.245-8.1-2.71a1.691,1.691,0,0,1-.2-2.013,5.156,5.156,0,0,1,2.616-2.016.705.705,0,1,0-.545-1.3,6.374,6.374,0,0,0-3.316,2.655A3.261,3.261,0,0,0,1.7,19.284c1.6,2.164,5.233,3.3,9.248,3.283S18.566,21.386,20.1,19.2a3.252,3.252,0,0,0,.2-3.517,6.587,6.587,0,0,0-3.4-2.613A.705.705,0,0,0,16.624,13.011Z" transform="translate(0 1036.362)" fill="#fff"/>
  </g>
</svg>
