<?xml version="1.0" encoding="utf-8"?>
<!-- Generator: Adobe Illustrator 24.3.0, SVG Export Plug-In . SVG Version: 6.00 Build 0)  -->
<svg version="1.1" id="Layer_1" xmlns="http://www.w3.org/2000/svg" xmlns:xlink="http://www.w3.org/1999/xlink" x="0px" y="0px"
	 viewBox="0 0 307.7 280" style="enable-background:new 0 0 307.7 280;" xml:space="preserve">
<style type="text/css">
	.st0{fill:#6D3BB9;}
	.st1{fill:#55259E;}
	.st2{fill:#B283FB;}
	.st3{fill:#3E1778;}
	.st4{fill:#481A8D;}
	.st5{fill:#925CE5;}
	.st6{fill:#FFAC5A;}
	.st7{fill:#FFFFFF;}
	.st8{fill:#4A297B;}
	.st9{fill:#BC5E00;}
	.st10{opacity:0.64;fill:url(#Path_112_1_);enable-background:new    ;}
	.st11{fill:url(#Path_111_1_);}
</style>
<image style="overflow:visible;" width="965" height="888" xlink:href="../../home round.png"  transform="matrix(0.24 0 0 0.24 34.6286 30.44)">
</image>
<g>
	<path id="Path_3" class="st0" d="M150.2,42.4c-1.1,0-2.2,0-3.3,0.1l0.6,17.6c0.9,0,1.8,0,2.8-0.1l0.4,0l0.7,0l0.2-17.6l-0.8,0
		L150.2,42.4z"/>
	<path id="Path_4" class="st0" d="M140.7,42.8l1.6,17.5c1.3-0.1,2.5-0.2,3.8-0.3l-0.9-17.6C143.8,42.6,142.2,42.7,140.7,42.8z"/>
	<path id="Path_5" class="st0" d="M153,42.4L152.6,60c1.3,0,2.6,0.1,3.8,0.2l1.2-17.5C156.1,42.5,154.5,42.4,153,42.4z"/>
	<path id="Path_6" class="st0" d="M134.6,43.6l2.7,17.4c1.3-0.2,2.5-0.4,3.8-0.5L139.2,43C137.7,43.1,136.1,43.4,134.6,43.6z"/>
	<path id="Path_7" class="st0" d="M128.6,44.7l3.7,17.2c1.2-0.3,2.5-0.5,3.8-0.7l-2.9-17.3C131.6,44.1,130.1,44.4,128.6,44.7z"/>
	<path id="Path_8" class="st1" d="M177.3,45.9l-4.6,17c1.2,0.3,2.5,0.7,3.7,1.1l5.3-16.8C180.3,46.7,178.8,46.3,177.3,45.9z"/>
	<path id="Path_9" class="st0" d="M122.6,46.2l4.8,16.9c1.2-0.3,2.5-0.7,3.7-1l-4-17.1C125.6,45.4,124.1,45.8,122.6,46.2z"/>
	<path id="Path_10" class="st1" d="M171.3,44.5l-3.5,17.2c1.2,0.3,2.5,0.5,3.7,0.9l4.3-17.1C174.3,45.1,172.8,44.8,171.3,44.5z"/>
	<path id="Path_11" class="st0" d="M165.3,43.4l-2.5,17.4c1.3,0.2,2.5,0.4,3.8,0.6l3.3-17.3C168.3,43.9,166.8,43.6,165.3,43.4z"/>
	<path id="Path_12" class="st1" d="M183.2,47.7l-5.6,16.7c1.2,0.4,2.4,0.8,3.6,1.3l6.3-16.4C186.1,48.7,184.7,48.2,183.2,47.7z"/>
	<path id="Path_13" class="st0" d="M159.1,42.7l-1.5,17.5c1.3,0.1,2.5,0.2,3.8,0.4l2.3-17.4C162.2,43,160.7,42.9,159.1,42.7z"/>
	<path id="Path_14" class="st0" d="M89.6,62.3L100,76.5c1-0.7,2.1-1.5,3.1-2.2l-9.8-14.6C92.1,60.5,90.9,61.4,89.6,62.3z"/>
	<path id="Path_15" class="st0" d="M84.8,66.1L96,79.6c1-0.8,2-1.6,3-2.4l-10.6-14C87.2,64.1,86,65.1,84.8,66.1z"/>
	<path id="Path_16" class="st2" d="M84.1,225.7c1.2,1,2.4,2,3.6,2.9l10.7-13.9c-1-0.8-2-1.6-3-2.4L84.1,225.7z"/>
	<path id="Path_17" class="st0" d="M116.7,48l5.8,16.6c1.2-0.4,2.4-0.8,3.6-1.2l-5-16.9C119.6,47.1,118.2,47.5,116.7,48z"/>
	<path id="Path_18" class="st2" d="M91.2,208l-12.1,12.8c1.1,1.1,2.3,2.1,3.4,3.1l11.5-13.3C93.1,209.7,92.2,208.8,91.2,208z"/>
	<path id="Path_19" class="st0" d="M105.4,52.8l7.7,15.8c1.1-0.6,2.3-1.1,3.5-1.6l-7-16.1C108.2,51.4,106.7,52.1,105.4,52.8z"/>
	<path id="Path_20" class="st0" d="M111,50.2l6.8,16.2c1.2-0.5,2.4-1,3.6-1.4l-6-16.5C113.8,49.1,112.4,49.6,111,50.2z"/>
	<path id="Path_21" class="st0" d="M99.9,55.6l8.6,15.3c1.1-0.6,2.2-1.2,3.4-1.8l-8-15.7C102.6,54.1,101.3,54.9,99.9,55.6z"/>
	<path id="Path_22" class="st0" d="M94.7,58.8l9.6,14.8c1.1-0.7,2.2-1.4,3.3-2l-8.9-15.2C97.3,57.1,96,58,94.7,58.8z"/>
	<path id="Path_23" class="st3" d="M226.5,184.1l15.7,8c0.7-1.4,1.4-2.8,2-4.2l-16-7.3C227.6,181.8,227,183,226.5,184.1z"/>
	<path id="Path_24" class="st4" d="M228.6,179.5l16.1,7.1c0.6-1.4,1.2-2.8,1.8-4.3l-16.4-6.3C229.7,177.1,229.2,178.3,228.6,179.5z"
		/>
	<path id="Path_25" class="st4" d="M230.6,174.7l16.5,6.1c0.5-1.4,1-2.9,1.5-4.4l-16.8-5.3C231.4,172.3,231,173.5,230.6,174.7z"/>
	<path id="Path_26" class="st2" d="M87.2,204.3l-12.9,12c1,1.1,2.1,2.2,3.2,3.3l12.3-12.6C89,206.2,88.1,205.3,87.2,204.3z"/>
	<path id="Path_27" class="st4" d="M232.2,169.9L249,175c0.4-1.5,0.9-3,1.2-4.5l-17.1-4.3C232.9,167.4,232.5,168.7,232.2,169.9z"/>
	<path id="Path_28" class="st3" d="M221.3,192.9l14.6,9.8c0.9-1.3,1.7-2.6,2.5-3.9l-15-9.2C222.7,190.7,222,191.8,221.3,192.9z"/>
	<path id="Path_29" class="st3" d="M224,188.6l15.1,8.9c0.8-1.3,1.5-2.7,2.3-4l-15.5-8.3C225.3,186.4,224.6,187.5,224,188.6z"/>
	<path id="Path_30" class="st4" d="M233.5,165l17.1,4c0.4-1.5,0.7-3,1-4.5l-17.3-3.3C234.1,162.5,233.8,163.7,233.5,165z"/>
	<path id="Path_31" class="st1" d="M189,49.8l-6.6,16.3c1.2,0.5,2.4,1,3.5,1.5l7.3-16C191.9,51,190.4,50.4,189,49.8z"/>
	<path id="Path_32" class="st4" d="M235.7,149.8l17.6,0.9c0.1-1.5,0.1-3.1,0.1-4.6l-17.6-0.1C235.8,147.3,235.7,148.6,235.7,149.8z"
		/>
	<path id="Path_33" class="st4" d="M234.5,160l17.3,3c0.3-1.5,0.5-3,0.7-4.6l-17.4-2.2C234.9,157.5,234.7,158.7,234.5,160z"/>
	<path id="Path_34" class="st4" d="M235.2,154.9l17.5,2c0.2-1.5,0.3-3.1,0.4-4.6l-17.5-1.2C235.5,152.4,235.4,153.7,235.2,154.9z"/>
	<path id="Path_35" class="st3" d="M218.3,197l14,10.7c0.9-1.2,1.8-2.5,2.7-3.7l-14.4-10C219.8,195,219.1,196,218.3,197z"/>
	<path id="Path_36" class="st1" d="M214.2,64.5c-1.2-0.9-2.4-1.9-3.7-2.8L200.3,76c1,0.7,2.1,1.5,3.1,2.3L214.2,64.5z"/>
	<path id="Path_37" class="st1" d="M205.4,58.3L196,73.1c1.1,0.7,2.1,1.4,3.2,2.1l10.1-14.4C208,60,206.7,59.1,205.4,58.3z"/>
	<path id="Path_38" class="st1" d="M194.6,52.3l-7.6,15.9c1.1,0.5,2.3,1.1,3.4,1.7l8.3-15.5C197.4,53.7,196,53,194.6,52.3z"/>
	<path id="Path_39" class="st4" d="M235.8,144.7l17.6-0.1c0-1.5-0.1-3.1-0.1-4.6l-17.6,0.9C235.7,142.2,235.8,143.5,235.8,144.7z"/>
	<path id="Path_40" class="st3" d="M203.2,214.2l11.1,13.7c1.2-1,2.4-2,3.5-3l-11.7-13.2C205.2,212.6,204.2,213.4,203.2,214.2z"/>
	<path id="Path_41" class="st3" d="M211.6,205.6l12.6,12.3c1.1-1.1,2.1-2.2,3.1-3.4l-13.1-11.7C213.4,203.8,212.5,204.7,211.6,205.6
		z"/>
	<path id="Path_42" class="st3" d="M215.1,201l13.3,11.5c1-1.2,2-2.4,2.9-3.6L217.5,198C216.7,199,215.9,200,215.1,201z"/>
	<path id="Path_43" class="st3" d="M208,210l11.9,13c1.1-1,2.3-2.1,3.3-3.2l-12.4-12.5C209.8,208.3,208.9,209.2,208,210z"/>
	<path id="Path_44" class="st1" d="M200.1,55.1l-8.5,15.4c1.1,0.6,2.2,1.3,3.3,1.9l9.2-15C202.8,56.7,201.5,55.9,200.1,55.1z"/>
	<path id="Path_45" class="st2" d="M83.9,200.5l-13.6,11.2c1,1.2,2,2.4,3,3.5l13-11.8C85.5,202.5,84.7,201.5,83.9,200.5z"/>
	<path id="Path_46" class="st1" d="M210.9,85.1l12.5-12.4c-1.1-1.1-2.2-2.2-3.3-3.2l-11.9,13C209.1,83.3,210,84.2,210.9,85.1z"/>
	<path id="Path_47" class="st1" d="M214.4,88.8l13.2-11.6c-1-1.1-2.1-2.3-3.1-3.4L211.8,86C212.7,86.9,213.6,87.9,214.4,88.8z"/>
	<path id="Path_48" class="st1" d="M217.7,92.7l13.8-10.9c-0.9-1.2-1.9-2.4-2.9-3.6l-13.4,11.4C216.1,90.7,216.9,91.7,217.7,92.7z"
		/>
	<path id="Path_49" class="st5" d="M95,80.4L83.6,67.1c-1.2,1-2.3,2-3.4,3.1l12,12.8C93.1,82.1,94.1,81.2,95,80.4z"/>
	<path id="Path_50" class="st5" d="M87.7,87.5L74.8,75.6c-1,1.1-2.1,2.3-3,3.5l13.5,11.3C86,89.4,86.8,88.4,87.7,87.5z"/>
	<path id="Path_51" class="st5" d="M91.3,83.9L79.1,71.2c-1.1,1.1-2.2,2.2-3.3,3.3l12.8,12.1C89.4,85.6,90.3,84.7,91.3,83.9z"/>
	<path id="Path_52" class="st5" d="M78.4,99.6l-14.9-9.4c-0.8,1.3-1.6,2.6-2.4,4l15.3,8.7C77,101.8,77.7,100.7,78.4,99.6z"/>
	<path id="Path_53" class="st5" d="M84.3,91.4L70.7,80.2c-1,1.2-1.9,2.4-2.8,3.6L82,94.4C82.8,93.4,83.5,92.3,84.3,91.4z"/>
	<path id="Path_54" class="st1" d="M220.7,96.8l14.5-10c-0.9-1.3-1.8-2.5-2.7-3.7l-14,10.6C219.2,94.8,220,95.8,220.7,96.8z"/>
	<path id="Path_55" class="st5" d="M81.2,95.4L67,85.1c-0.9,1.2-1.8,2.5-2.6,3.8l14.7,9.6C79.8,97.5,80.5,96.4,81.2,95.4z"/>
	<path id="Path_56" class="st4" d="M233.2,124.5l17.1-4.3c-0.4-1.5-0.8-3-1.2-4.5l-16.9,5C232.6,122.1,232.9,123.3,233.2,124.5z"/>
	<path id="Path_57" class="st4" d="M235.1,134.5l17.5-2.2c-0.2-1.5-0.4-3.1-0.7-4.6l-17.3,3C234.8,132,235,133.3,235.1,134.5z"/>
	<path id="Path_58" class="st4" d="M234.3,129.5l17.3-3.2c-0.3-1.5-0.6-3-0.9-4.5l-17.1,4C233.8,127,234.1,128.3,234.3,129.5z"/>
	<path id="Path_59" class="st4" d="M235.6,139.6l17.6-1.1c-0.1-1.5-0.2-3.1-0.4-4.6l-17.5,1.9C235.4,137.1,235.5,138.4,235.6,139.6z
		"/>
	<path id="Path_60" class="st4" d="M230.2,114.8l16.4-6.3c-0.5-1.4-1.1-2.9-1.7-4.3l-16.1,7C229.2,112.4,229.7,113.6,230.2,114.8z"
		/>
	<path id="Path_61" class="st4" d="M228.2,110.1l16-7.3c-0.6-1.4-1.3-2.8-2-4.2l-15.7,8C227.1,107.8,227.7,109,228.2,110.1z"/>
	<path id="Path_62" class="st1" d="M226,105.5l15.6-8.2c-0.7-1.4-1.5-2.7-2.2-4l-15.2,8.9C224.8,103.3,225.4,104.4,226,105.5z"/>
	<path id="Path_63" class="st1" d="M223.5,101.1l15-9.1c-0.8-1.3-1.6-2.6-2.5-3.9l-14.6,9.8C222.1,98.9,222.8,100,223.5,101.1z"/>
	<path id="Path_64" class="st4" d="M231.9,119.6l16.8-5.3c-0.5-1.5-1-2.9-1.5-4.4l-16.5,6C231.1,117.2,231.5,118.4,231.9,119.6z"/>
	<path id="Path_65" class="st1" d="M207.2,81.6l11.7-13.1c-1.1-1-2.3-2-3.5-3l-11.1,13.6C205.3,79.9,206.3,80.7,207.2,81.6z"/>
	<path id="Path_67" class="st5" d="M75.8,104l-15.4-8.5c-0.7,1.3-1.5,2.7-2.1,4.1l15.8,7.8C74.6,106.3,75.2,105.1,75.8,104z"/>
	<path id="Path_68" class="st2" d="M68.3,168.3L51.3,173c0.4,1.5,0.9,3,1.3,4.4l16.7-5.5C69,170.7,68.6,169.5,68.3,168.3z"/>
	<path id="Path_69" class="st2" d="M67.1,163.3L49.9,167c0.3,1.5,0.7,3,1.1,4.5l17-4.5C67.6,165.8,67.3,164.6,67.1,163.3z"/>
	<path id="Path_70" class="st2" d="M65.5,153.3L48,154.9c0.1,1.5,0.3,3.1,0.5,4.6l17.4-2.4C65.8,155.8,65.6,154.5,65.5,153.3z"/>
	<path id="Path_71" class="st2" d="M66.1,158.3L48.8,161c0.2,1.5,0.5,3,0.8,4.5l17.3-3.4C66.6,160.9,66.3,159.6,66.1,158.3z"/>
	<path id="Path_72" class="st2" d="M80.7,196.5l-14.2,10.4c0.9,1.2,1.8,2.5,2.8,3.7l13.7-11C82.3,198.5,81.5,197.5,80.7,196.5z"/>
	<path id="Path_73" class="st2" d="M77.8,192.3l-14.8,9.5c0.8,1.3,1.7,2.6,2.6,3.8L80,195.5C79.2,194.4,78.5,193.4,77.8,192.3z"/>
	<path id="Path_74" class="st2" d="M75.2,187.9l-15.3,8.6c0.7,1.3,1.5,2.7,2.3,4l14.9-9.3C76.5,190.1,75.8,189,75.2,187.9z"/>
	<path id="Path_66" class="st2" d="M70.8,178.4l-16.3,6.7c0.6,1.4,1.2,2.8,1.9,4.2l15.9-7.5C71.8,180.7,71.2,179.6,70.8,178.4z"/>
	<path id="Path_75" class="st2" d="M73.1,183.1l-15.8,7.7c0.7,1.4,1.4,2.8,2.1,4.1l15.5-8.4C74.2,185.4,73.6,184.3,73.1,183.1z"/>
	<path id="Path_76" class="st2" d="M69.8,173.2l-16.6,5.7c0.5,1.4,1,2.9,1.6,4.3l16.3-6.5C70.7,175.6,70.2,174.4,69.8,173.2z"/>
	<path id="Path_77" class="st5" d="M68.1,122.9l-17-4.6c-0.4,1.5-0.8,3-1.1,4.5l17.2,3.8C67.5,125.4,67.8,124.1,68.1,122.9z"/>
	<path id="Path_78" class="st5" d="M71.4,113.2l-16.3-6.6c-0.6,1.4-1.1,2.9-1.6,4.3l16.6,5.9C70.4,115.6,70.9,114.4,71.4,113.2z"/>
	<path id="Path_79" class="st5" d="M69.6,118l-16.7-5.6c-0.5,1.4-1,2.9-1.4,4.4l16.9,4.9C68.8,120.5,69.2,119.2,69.6,118z"/>
	<path id="Path_80" class="st5" d="M73.4,108.6L57.6,101c-0.7,1.4-1.3,2.8-1.9,4.2l16.2,6.9C72.4,110.9,72.9,109.7,73.4,108.6z"/>
	<path id="Path_81" class="st5" d="M65.2,145.5l0-0.4c0-0.7,0-1.4,0-2.1l-17.6-0.5c0,0.8,0,1.6,0,2.5l0,0.5c0,0.6,0,1.1,0,1.7
		l17.6-0.3C65.2,146.4,65.2,146,65.2,145.5z"/>
	<path id="Path_82" class="st5" d="M65.5,138l-17.5-1.5c-0.1,1.5-0.2,3.1-0.3,4.6l17.6,0.7C65.3,140.5,65.4,139.2,65.5,138z"/>
	<path id="Path_83" class="st2" d="M65.2,148.2l-17.6,0.6c0.1,1.5,0.1,3.1,0.3,4.6l17.5-1.4C65.3,150.7,65.2,149.4,65.2,148.2z"/>
	<path id="Path_84" class="st5" d="M66.9,127.9l-17.2-3.6c-0.3,1.5-0.6,3-0.8,4.5l17.4,2.8C66.4,130.4,66.7,129.1,66.9,127.9z"/>
	<path id="Path_85" class="st5" d="M66,132.9l-17.4-2.5c-0.2,1.5-0.4,3.1-0.6,4.6l17.5,1.7C65.7,135.4,65.9,134.1,66,132.9z"/>
</g>
<g id="Group_22" transform="translate(0 0)">
	<g id="Group_5" transform="translate(80.674 78.11) rotate(-25)">
		<path id="Path_86" class="st6" d="M44.5,131.2c-1.5-0.4-2.6-1.6-3.1-3L5.5,9C4.8,6.6,6.2,4.1,8.6,3.4c2.4-0.7,4.8,0.6,5.6,3
			l36,119.2c0.7,2.4-0.6,4.9-3,5.6C46.3,131.4,45.4,131.4,44.5,131.2L44.5,131.2z"/>
	</g>
	<g id="Group_6" transform="translate(124.545 122.263)">
		<path id="Path_87" class="st7" d="M35.8,8c-2.5-1.6-5.5-2.4-8.5-2.4c-1.3,0-2.5,0.2-3.8,0.4c-8.7,2.1-14.1,10.8-12,19.5
			c2.1,8.7,10.8,14.1,19.5,12S45.1,26.7,43,18C42,13.8,39.4,10.2,35.8,8z"/>
		<g transform="matrix(1, 0, 0, 1, -124.54, -122.26)">
			<path id="Path_88-2" class="st6" d="M172.4,139.1c-2.7-11.3-14.1-18.4-25.4-15.7c-11.3,2.7-18.4,14.1-15.7,25.4
				c2.3,9.5,10.7,16.2,20.5,16.2c1.7,0,3.3-0.2,4.9-0.6C168,161.9,175.1,150.5,172.4,139.1C172.4,139.1,172.4,139.1,172.4,139.1
				L172.4,139.1z M167.7,153.8c-5.4,8.8-16.9,11.5-25.7,6.1s-11.5-16.9-6.1-25.7c5.4-8.8,16.9-11.5,25.7-6.1
				C170.4,133.5,173.1,145,167.7,153.8C167.7,153.8,167.7,153.8,167.7,153.8L167.7,153.8z"/>
		</g>
		<path id="Path_89" class="st8" d="M37,5.9C28.3,0.5,16.8,3.2,11.4,12c-5.4,8.8-2.7,20.3,6.1,25.7c8.8,5.4,20.3,2.7,25.7-6.1
			C48.6,22.8,45.8,11.3,37,5.9C37,5.9,37,5.9,37,5.9z M41,30.3c-4.7,7.6-14.7,10-22.3,5.3s-10-14.7-5.3-22.3C15.7,9.6,19.3,7,23.5,6
			c1.2-0.3,2.5-0.4,3.8-0.4c9,0,16.2,7.3,16.2,16.3C43.4,24.8,42.6,27.7,41,30.3z"/>
	</g>
	<circle id="Ellipse_6" class="st9" cx="93" cy="81.7" r="2.8"/>
	<g id="Group_13" transform="translate(48.556 236.557)">
		<path id="Path_96" class="st7" d="M13.7,6.3c0,3.8-1.4,5.9-3.9,5.9c-2.2,0-3.6-2-3.7-5.7c0-3.7,1.6-5.8,3.9-5.8
			C12.3,0.6,13.7,2.7,13.7,6.3z M7.6,6.4c0,2.9,0.9,4.5,2.3,4.5c1.5,0,2.3-1.8,2.3-4.6c0-2.7-0.7-4.5-2.3-4.5
			C8.6,1.8,7.6,3.4,7.6,6.4L7.6,6.4z"/>
	</g>
	<g id="Group_14" transform="translate(235.933 236.557)">
		<path id="Path_97" class="st7" d="M6.5,10.2c0.7,0.4,1.6,0.7,2.5,0.7c1.9,0,2.5-1.2,2.5-2.2c0-1.6-1.4-2.2-2.9-2.2H7.8V5.4h0.8
			c1.1,0,2.5-0.6,2.5-1.9c0-0.9-0.6-1.7-2-1.7c-0.8,0-1.6,0.3-2.2,0.7L6.5,1.5c0.9-0.6,1.9-0.9,2.9-0.9c2.2,0,3.2,1.3,3.2,2.7
			c0,1.2-0.9,2.3-2.1,2.6v0c1.4,0.2,2.5,1.4,2.5,2.9c0,1.8-1.4,3.3-4.1,3.3c-1,0-2-0.2-2.9-0.8L6.5,10.2z"/>
		<path id="Path_98" class="st7" d="M22.3,6.3c0,3.8-1.4,5.9-3.9,5.9c-2.2,0-3.6-2-3.7-5.7c0-3.7,1.6-5.8,3.9-5.8
			C21,0.6,22.3,2.7,22.3,6.3z M16.3,6.4c0,2.9,0.9,4.5,2.3,4.5c1.5,0,2.3-1.8,2.3-4.6c0-2.7-0.7-4.5-2.3-4.5
			C17.3,1.8,16.3,3.4,16.3,6.4L16.3,6.4z"/>
		<path id="Path_99" class="st7" d="M31.1,6.3c0,3.8-1.4,5.9-3.9,5.9c-2.2,0-3.6-2-3.7-5.7c0-3.7,1.6-5.8,3.9-5.8
			C29.8,0.6,31.1,2.7,31.1,6.3z M25.1,6.4c0,2.9,0.9,4.5,2.3,4.5c1.5,0,2.3-1.8,2.3-4.6c0-2.7-0.7-4.5-2.3-4.5
			C26,1.8,25.1,3.4,25.1,6.4L25.1,6.4z"/>
	</g>
	<g id="Group_15" transform="translate(27.741 27.413)">
		<path id="Path_100" class="st7" d="M8.4,2.2L8.4,2.2l-2,1L6.1,2.1l2.4-1.3h1.3V12H8.4V2.2z"/>
		<path id="Path_101" class="st7" d="M13.9,12V11l1.2-1.1c2.8-2.7,4.1-4.1,4.1-5.8C19.3,3,18.5,2,17.4,1.9c-0.1,0-0.3,0-0.4,0
			c-0.9,0-1.7,0.4-2.4,0.9l-0.5-1.1c0.9-0.7,2-1.1,3.2-1.1c1.7-0.2,3.2,1.1,3.4,2.8c0,0.1,0,0.3,0,0.4c0,2.1-1.5,3.7-3.8,6L16,10.7
			v0h5v1.3L13.9,12z"/>
		<path id="Path_102" class="st7" d="M30.1,6.3c0,3.8-1.4,5.9-3.9,5.9c-2.2,0-3.6-2-3.7-5.7c0-3.7,1.6-5.8,3.9-5.8
			C28.7,0.6,30.1,2.7,30.1,6.3z M24,6.4c0,2.9,0.9,4.5,2.3,4.5c1.5,0,2.3-1.8,2.3-4.6c0-2.7-0.7-4.5-2.3-4.5C25,1.8,24,3.4,24,6.4
			L24,6.4z"/>
	</g>
	<g id="Group_16" transform="translate(220.884 25.215)">
		<path id="Path_103" class="st7" d="M8.4,2.2L8.4,2.2l-2,1L6.1,2.1l2.4-1.3h1.3V12H8.4L8.4,2.2z"/>
		<path id="Path_104" class="st7" d="M13.7,9.1c0-1.4,0.9-2.6,2.2-3l0-0.1c-1-0.4-1.7-1.4-1.8-2.5c0-1.8,1.5-3,3.4-3
			c2.2,0,3.2,1.4,3.2,2.7c0,1.2-0.7,2.2-1.8,2.6V6c1.3,0.4,2.2,1.5,2.2,2.9c0,1.9-1.7,3.2-3.8,3.2C15.1,12.1,13.7,10.8,13.7,9.1z
			 M19.7,9.1c0-1.4-0.9-2-2.4-2.4c-1.1,0.2-2,1.2-2,2.3c0,1.1,0.8,2.1,2,2.1c0.1,0,0.2,0,0.2,0c1.1,0.1,2.1-0.7,2.2-1.8
			C19.7,9.2,19.7,9.1,19.7,9.1L19.7,9.1z M15.6,3.5c0,1.1,0.8,1.7,2.1,2.1c1-0.2,1.6-1,1.7-2c0.1-1-0.7-1.8-1.6-1.8
			c-0.1,0-0.2,0-0.2,0c-1-0.1-1.8,0.6-1.9,1.6C15.6,3.4,15.6,3.4,15.6,3.5L15.6,3.5z"/>
		<path id="Path_105" class="st7" d="M30.1,6.3c0,3.8-1.4,5.9-3.9,5.9c-2.2,0-3.6-2-3.7-5.7c0-3.7,1.6-5.8,3.9-5.8
			C28.7,0.6,30.1,2.7,30.1,6.3z M24,6.4c0,2.9,0.9,4.5,2.3,4.5c1.5,0,2.3-1.8,2.3-4.6c0-2.7-0.7-4.5-2.3-4.5C25,1.8,24,3.4,24,6.4
			L24,6.4z"/>
	</g>
	<g id="Group_17" transform="translate(0 139.703)">
		<path id="Path_106" class="st7" d="M12.6,1.9c-0.4,0-0.8,0-1.1,0.1c-2,0.3-3.6,1.9-3.9,4h0.1c1.2-1.5,3.3-1.7,4.8-0.6
			c0.9,0.7,1.3,1.8,1.3,2.9c0.1,2.1-1.5,3.8-3.5,3.9c-0.1,0-0.1,0-0.2,0c-2.4,0-3.9-1.8-3.9-4.7C6,5.5,6.7,3.7,8,2.4
			c1-0.9,2.2-1.5,3.6-1.6c0.4-0.1,0.7-0.1,1.1-0.1L12.6,1.9z M12.2,8.3c0.2-1.2-0.7-2.4-2-2.5c-0.1,0-0.2,0-0.3,0
			C9,5.8,8.2,6.3,7.8,7.1C7.6,7.3,7.6,7.6,7.6,7.8C7.6,9.6,8.5,11,10,11C11.3,11,12.2,9.9,12.2,8.3L12.2,8.3z"/>
		<path id="Path_107" class="st7" d="M22.5,6.3c0,3.8-1.4,5.9-3.9,5.9c-2.2,0-3.6-2-3.7-5.7c0-3.7,1.6-5.8,3.9-5.8
			C21.1,0.6,22.5,2.7,22.5,6.3z M16.4,6.4c0,2.9,0.9,4.5,2.3,4.5c1.5,0,2.3-1.8,2.3-4.6c0-2.7-0.7-4.5-2.3-4.5
			C17.4,1.8,16.4,3.4,16.4,6.4L16.4,6.4z"/>
	</g>
	<g id="Group_18" transform="translate(276.649 141.826)">
		<path id="Path_108" class="st7" d="M6.1,12V11l1.2-1.1c2.8-2.7,4.1-4.1,4.1-5.8C11.5,3,10.7,2,9.7,1.9c-0.1,0-0.3,0-0.4,0
			c-0.9,0-1.7,0.4-2.4,0.9L6.4,1.8c0.9-0.7,2-1.1,3.2-1.1c1.7-0.2,3.2,1.1,3.4,2.8c0,0.1,0,0.3,0,0.4c0,2.1-1.5,3.7-3.8,6l-0.9,0.8
			v0h5v1.3L6.1,12z"/>
		<path id="Path_109" class="st7" d="M19.5,12v-3h-5.2v-1l5-7.1H21v6.9h1.6v1.2H21v3L19.5,12z M19.5,7.7V4c0-0.6,0-1.2,0.1-1.7h-0.1
			c-0.3,0.7-0.6,1.1-0.9,1.6l-2.7,3.8v0L19.5,7.7z"/>
		<path id="Path_110" class="st7" d="M31.1,6.3c0,3.8-1.4,5.9-3.9,5.9c-2.2,0-3.6-2-3.7-5.7c0-3.7,1.6-5.8,3.9-5.8
			C29.7,0.6,31.1,2.7,31.1,6.3z M25,6.4c0,2.9,0.9,4.5,2.3,4.5c1.5,0,2.3-1.8,2.3-4.6c0-2.7-0.7-4.5-2.3-4.5C26,1.8,25,3.4,25,6.4
			L25,6.4z"/>
	</g>
	
		<radialGradient id="Path_112_1_" cx="-153.0252" cy="445.3925" r="0.499" gradientTransform="matrix(-0.3042 -101.416 -141.1603 0.4235 62701.7773 -15479.8379)" gradientUnits="userSpaceOnUse">
		<stop  offset="0" style="stop-color:#FFAC5A"/>
		<stop  offset="0.28" style="stop-color:#8E4D0E"/>
		<stop  offset="0.962" style="stop-color:#000000"/>
		<stop  offset="1" style="stop-color:#000000"/>
	</radialGradient>
	<path id="Path_112" class="st10" d="M81.2,10c38.8-0.1,70.3,22.5,70.4,50.5c0.1,28-31.3,50.8-70.1,50.9
		c-26.2,0.1-49-10.2-61.4-25.7c-5.7-7-8.9-15.7-9-24.8C11.1,32.9,42.4,10.1,81.2,10z"/>
	
		<radialGradient id="Path_111_1_" cx="-150.7328" cy="446.3977" r="3.900000e-02" gradientTransform="matrix(161.7897 -141.6287 -1903.5347 -2176.0869 872253.3125 950982.5)" gradientUnits="userSpaceOnUse">
		<stop  offset="0" style="stop-color:#999999"/>
		<stop  offset="0.147" style="stop-color:#898989"/>
		<stop  offset="0.432" style="stop-color:#606060"/>
		<stop  offset="0.823" style="stop-color:#1F1F1F"/>
		<stop  offset="1" style="stop-color:#000000"/>
	</radialGradient>
	<path id="Path_111" class="st11" d="M134.7,106.2c40.7,46.5,70.9,86.7,67.4,89.7s-39.2-32.2-79.9-78.7S51.3,30.5,54.8,27.4
		S94,59.7,134.7,106.2z"/>
</g>
</svg>
