<svg xmlns="http://www.w3.org/2000/svg" xmlns:xlink="http://www.w3.org/1999/xlink" width="189.373" height="93.482" viewBox="0 0 189.373 93.482">
  <defs>
    <clipPath id="clip-path">
      <path id="Path_131" data-name="Path 131" d="M277.986,371.7a83,83,0,0,0-21.954-8.73,82.007,82.007,0,0,0-23.879-2.108,80.677,80.677,0,0,0-23.071,4.791,78.778,78.778,0,0,0-19.751,10.667c-1.46,1.07-2.85,2.2-4.2,3.345S182.5,382,181.256,383.2l-.913.913-.453.455-.442.464-.877.924-.85.938-.421.467-.41.475-.813.946-.787.957-.389.477-.378.483-.75.961-.723.97-.359.482-.346.489-.687.971c-.889,1.307-1.745,2.6-2.527,3.911a75.435,75.435,0,0,0-9.005,22.161c-.5,2.2-.883,4.265-1.152,6.186-.072.479-.123.952-.184,1.412l-.086.683-.067.67q-.065.662-.127,1.292t-.092,1.231a70.823,70.823,0,0,0-.146,7.407c.014.852.065,1.5.083,1.943l.035.665.052-.664c.038-.438.072-1.088.168-1.932a70.147,70.147,0,0,1,1.088-7.246l.246-1.186.287-1.239.15-.64.169-.651c.117-.438.225-.887.356-1.341.5-1.82,1.127-3.761,1.879-5.8a71.419,71.419,0,0,1,6.375-12.972,69.556,69.556,0,0,1,4.732-6.679c.873-1.107,1.811-2.189,2.774-3.272l.741-.8.372-.4.383-.395.769-.794.792-.78.4-.391.408-.384.82-.769.842-.754.423-.378.433-.37.869-.74.891-.723.447-.362.457-.353.917-.706c1.242-.923,2.515-1.825,3.833-2.681s2.667-1.684,4.064-2.45a67.9,67.9,0,0,1,18.085-6.931,67.032,67.032,0,0,1,19.546-1.469,65.511,65.511,0,0,1,18.738,4.152,63.8,63.8,0,0,1,13,6.794l17.165-13.276C280.051,372.913,279.031,372.289,277.986,371.7Z" transform="translate(-158.233 -360.718)" fill="none"/>
    </clipPath>
    <clipPath id="clip-path-2">
      <path id="Path_134" data-name="Path 134" d="M725.358,500.764c0,.051,0,.091-.007.137q-.008.132-.015.257-.013.25-.025.474l-.122,2.4,30.039-.381-.223-2.808-.076-.872q-.021-.229-.042-.471-.011-.119-.023-.241c-.009-.076-.017-.153-.027-.231l-.241-2.032c-.105-.731-.212-1.516-.342-2.351l-.218-1.289q-.056-.331-.115-.672l-.133-.689-.281-1.432c-.1-.488-.216-.987-.329-1.5l-.173-.774-.195-.788c-.134-.53-.261-1.073-.411-1.623-.581-2.2-1.307-4.556-2.19-7.025a86.454,86.454,0,0,0-7.53-15.775,84.581,84.581,0,0,0-5.632-8.15c-1.042-1.351-2.16-2.677-3.313-4l-.885-.982-.445-.492-.458-.485-.92-.971-.948-.957-.477-.479-.488-.472-.983-.943-1.009-.927-.508-.464-.518-.455-1.044-.909-1.07-.891-.538-.445-.549-.435-1.1-.869c-.35-.267-.7-.532-1.06-.8L708.9,457.7l.064.069.7.757.675.769.335.382.325.389.646.773.623.783.309.389.3.395.595.784.571.792.284.393.273.4.543.791c.7,1.065,1.376,2.118,1.989,3.183a60.349,60.349,0,0,1,6.951,17.887c.373,1.762.652,3.419.842,4.957.053.383.085.762.129,1.13l.061.546q.022.271.044.536.044.529.086,1.033t.057.984q.014.239.028.472t.014.46q.016.453.03.88.009.853.016,1.6-.013.743-.023,1.374Z" transform="translate(-708.896 -438.956)" fill="none"/>
    </clipPath>
  </defs>
  <g id="splash_icon" data-name="splash icon" transform="translate(-158.233 -360.718)">
    <g id="Group_56" data-name="Group 56" transform="translate(300.733 378.564)">
      <path id="Path_127" data-name="Path 127" d="M832.545,445.166l29.744.9-29.744.9Z" transform="translate(-832.545 -445.166)" fill="#fff"/>
    </g>
    <g id="Group_57" data-name="Group 57" transform="translate(317.861 401.667)">
      <path id="Path_128" data-name="Path 128" d="M913.6,554.486l29.744.9-29.744.9Z" transform="translate(-913.596 -554.486)" fill="#fff"/>
    </g>
    <g id="Group_58" data-name="Group 58" transform="translate(310.046 389.483)">
      <path id="Path_129" data-name="Path 129" d="M876.614,496.83l33.243.9-33.243.9Z" transform="translate(-876.614 -496.83)" fill="#fff"/>
    </g>
    <g id="Group_61" data-name="Group 61" transform="translate(158.233 360.718)">
      <g id="Group_60" data-name="Group 60" transform="translate(0)">
        <g id="Group_59" data-name="Group 59" clip-path="url(#clip-path)">
          <path id="Path_130" data-name="Path 130" d="M158.026,382.438l64.372-23.28h58.494v37.719L159.153,440.9h-1.127Z" transform="translate(-158.07 -359.488)" fill="#fff"/>
        </g>
      </g>
    </g>
    <g id="Group_64" data-name="Group 64" transform="translate(274.603 377.252)">
      <g id="Group_63" data-name="Group 63">
        <g id="Group_62" data-name="Group 62" clip-path="url(#clip-path-2)">
          <path id="Path_132" data-name="Path 132" d="M708.9,442.9l10.913-3.947h29.5l5.922,16.376v48.651l-.125.045H708.9Z" transform="translate(-708.896 -438.956)" fill="#fff"/>
          <path id="Path_133" data-name="Path 133" d="M906.041,455.332l-5.922-16.376h5.922Z" transform="translate(-859.709 -438.956)" fill="#fff"/>
        </g>
      </g>
    </g>
    <g id="Group_65" data-name="Group 65" transform="translate(210.874 379.466)">
      <path id="Path_135" data-name="Path 135" d="M463.825,459.326l-47.006,36.358a14.656,14.656,0,0,0-5.657,3.858,14.819,14.819,0,0,0-1.106,1.373l-.339.5a14.722,14.722,0,0,0,21.5,19.552l.463-.385a14.915,14.915,0,0,0,1.261-1.231,14.658,14.658,0,0,0,3.3-6l40.37-63.92ZM422.514,515.3a6.532,6.532,0,1,1,6.532-6.531A6.532,6.532,0,0,1,422.514,515.3Z" transform="translate(-407.333 -449.43)" fill="#fff"/>
    </g>
  </g>
</svg>
