<svg xmlns="http://www.w3.org/2000/svg" width="23.163" height="19.677" viewBox="0 0 23.163 19.677">
  <path id="wifi" d="M19.185,17.135A1.24,1.24,0,0,1,19.26,18.9a1.222,1.222,0,0,1-.931.4,1.261,1.261,0,0,1-.856-.327c-5.589-5.111-11.606-.252-11.858-.05A1.251,1.251,0,1,1,4,17.009c2.744-2.291,9.39-5.186,15.181.126Zm-7.5,7a2.34,2.34,0,0,0-1.687.7,2.392,2.392,0,0,0,1.687,4.078,2.34,2.34,0,0,0,1.687-.7,2.392,2.392,0,0,0-1.687-4.078ZM22.76,13.711C16.793,8.5,11.028,8.777,7.227,9.935a18.285,18.285,0,0,0-6.8,3.776,1.239,1.239,0,0,0-.05,1.762,1.269,1.269,0,0,0,1.787.05,16.225,16.225,0,0,1,5.815-3.2c4.632-1.41,9.038-.3,13.141,3.273a1.251,1.251,0,0,0,.831.3,1.3,1.3,0,0,0,.957-.428,1.269,1.269,0,0,0-.151-1.762ZM7.453,20.584a1.254,1.254,0,1,0,1.561,1.964c.1-.076,2.769-2.14,5.035-.025a1.281,1.281,0,0,0,1.787-.076,1.218,1.218,0,0,0-.076-1.762c-3.046-2.82-6.772-1.284-8.308-.1Z" transform="translate(-0.035 -9.24)" fill="#fff"/>
</svg>
